<svg width="67" height="28" viewBox="0 0 67 28" version="1.1" xmlns="http://www.w3.org/2000/svg" xmlns:xlink="http://www.w3.org/1999/xlink">
<title>Menu Top</title>
<desc>Created using Figma</desc>
<g id="Canvas" transform="translate(-1067 87)">
<g id="Menu Top">
<g id="Search">
<g id="search-icon">
<use xlink:href="#path0_fill" transform="translate(1113 -80)" fill="#2C3E51"/>
<use xlink:href="#path1_stroke" transform="translate(1113 -80)" fill="#FFFFFF"/>
</g>
</g>
<g id="Notifications">
<g id="notification-icon">
<use xlink:href="#path2_fill" transform="translate(1067 -81)" fill="#2C3E51"/>
</g>
<g id="bubble">
<use xlink:href="#path3_fill" transform="translate(1076 -87)" fill="#1DCE6C"/>
</g>
<g id="2">
<use xlink:href="#path4_fill" transform="translate(1082 -85)" fill="#FFFFFF"/>
</g>
</g>
</g>
</g>
<defs>
<path id="path0_fill" fill-rule="evenodd" d="M 19.6369 17.9113L 15.5145 13.8444C 16.6742 12.3891 17.372 10.5582 17.372 8.56842C 17.372 3.84385 13.4756 0 8.68658 0C 3.89644 0 0 3.84385 0 8.56842C 0 13.2919 3.89644 17.1358 8.68658 17.1358C 10.563 17.1358 12.2981 16.5381 13.7205 15.5364L 17.8818 19.6422C 18.1244 19.8811 18.4416 20 18.7599 20C 19.0771 20 19.3943 19.8811 19.6369 19.6422C 20.121 19.1645 20.121 18.3901 19.6369 17.9113ZM 2.48071 8.56842C 2.48071 5.19387 5.26532 2.44857 8.68653 2.44857C 12.1077 2.44857 14.8901 5.19387 14.8901 8.56842C 14.8901 11.943 12.1077 14.6872 8.68653 14.6872C 5.26532 14.6872 2.48071 11.943 2.48071 8.56842Z"/>
<path id="path1_stroke" d="M 15.5145 13.8444L 14.8302 13.2991L 14.3398 13.9145L 14.9 14.4673L 15.5145 13.8444ZM 13.7205 15.5364L 14.335 14.9135L 13.8145 14.3999L 13.2166 14.821L 13.7205 15.5364ZM 17.8818 19.6422L 17.2672 20.2651L 17.2679 20.2658L 17.8818 19.6422ZM 19.6369 19.6422L 20.2508 20.2658L 20.2515 20.2651L 19.6369 19.6422ZM 20.2514 17.2884L 16.129 13.2215L 14.9 14.4673L 19.0224 18.5342L 20.2514 17.2884ZM 16.1988 14.3897C 17.4342 12.8227 18.2326 10.7166 18.247 8.56842L 16.497 8.56842C 16.5115 10.3998 15.9142 11.9555 14.8302 13.2991L 16.1988 14.3897ZM 18.247 8.56842C 18.247 3.34944 13.9476 -0.875 8.68658 -0.875L 8.68658 0.875C 13.0036 0.875 16.497 4.33826 16.497 8.56842L 18.247 8.56842ZM 8.68658 -0.875C 3.4245 -0.875 -0.875 3.34937 -0.875 8.56842L 0.875 8.56842C 0.875 4.33833 4.36838 0.875 8.68658 0.875L 8.68658 -0.875ZM -0.875 8.56842C -0.875 13.7865 3.42457 18.0108 8.68658 18.0108L 8.68658 16.2608C 4.36831 16.2608 0.875 12.7974 0.875 8.56842L -0.875 8.56842ZM 8.68658 18.0108C 10.7075 17.9988 12.6965 17.3172 14.2243 16.2518L 13.2166 14.821C 11.8998 15.7591 10.4185 16.2728 8.68658 16.2608L 8.68658 18.0108ZM 13.1059 16.1592L 17.2672 20.2651L 18.4963 19.0194L 14.335 14.9135L 13.1059 16.1592ZM 17.2679 20.2658C 17.6825 20.6739 18.2238 20.875 18.7599 20.875L 18.7599 19.125C 18.6594 19.125 18.5663 19.0883 18.4956 19.0187L 17.2679 20.2658ZM 18.7599 20.875C 19.2953 20.875 19.8364 20.6737 20.2508 20.2658L 19.023 19.0187C 18.9521 19.0885 18.8589 19.125 18.7599 19.125L 18.7599 20.875ZM 20.2515 20.2651C 21.0832 19.4443 21.0822 18.11 20.2522 17.2891L 19.0216 18.5334C 19.1598 18.6701 19.1588 18.8847 19.0223 19.0194L 20.2515 20.2651ZM 3.35571 8.56842C 3.35571 5.68866 5.73695 3.32357 8.68653 3.32357L 8.68653 1.57357C 4.79368 1.57357 1.60571 4.69909 1.60571 8.56842L 3.35571 8.56842ZM 8.68653 3.32357C 11.6357 3.32357 14.0151 5.68825 14.0151 8.56842L 15.7651 8.56842C 15.7651 4.6995 12.5798 1.57357 8.68653 1.57357L 8.68653 3.32357ZM 14.0151 8.56842C 14.0151 11.4484 11.6359 13.8122 8.68653 13.8122L 8.68653 15.5622C 12.5796 15.5622 15.7651 12.4375 15.7651 8.56842L 14.0151 8.56842ZM 8.68653 13.8122C 5.73675 13.8122 3.35571 11.448 3.35571 8.56842L 1.60571 8.56842C 1.60571 12.4379 4.79388 15.5622 8.68653 15.5622L 8.68653 13.8122Z"/>
<path id="path2_fill" fill-rule="evenodd" d="M 13.9782 14.4288C 13.9782 14.5717 14.0464 14.7145 14.1487 14.7503C 15.5182 15.2888 15.1708 17.5003 13.5691 17.5L 10.1939 17.5C 10.0233 18.8928 8.86416 20 7.50039 20C 6.13662 20 4.97744 18.8928 4.80703 17.5L 1.43178 17.5C -0.190165 17.5 -0.504496 15.2835 0.852194 14.7499C 0.954366 14.7145 1.0226 14.5713 1.0226 14.4288L 1.0226 8.92873C 1.0226 7.07156 1.73855 5.32153 3.00002 4.03579C 3.95461 3.1072 5.11391 2.46433 6.37527 2.25004C 6.23891 2.00004 6.13662 1.71432 6.13662 1.4286C 6.13662 0.642868 6.75039 0 7.50039 0C 8.25051 0 8.86416 0.642868 8.86416 1.4286C 8.86416 1.75003 8.79592 2.00004 8.62551 2.25004C 11.6258 2.82148 13.9782 5.67867 13.9782 9.07159L 13.9782 14.4288ZM 8.18227 1.4286C 8.18227 1.03574 7.87539 0.714302 7.50039 0.714302C 7.12539 0.714302 6.8185 1.03574 6.8185 1.4286C 6.8185 1.82146 7.12539 2.1429 7.50039 2.1429C 7.87539 2.1429 8.18227 1.82146 8.18227 1.4286ZM 7.50039 19.2861C 6.47768 19.2861 5.65932 18.5003 5.48891 17.5003L 9.51198 17.5003C 9.34145 18.5003 8.52321 19.2861 7.50039 19.2861ZM 1.43166 16.786L 13.569 16.786C 14.4193 16.786 14.5755 15.6553 13.9099 15.3928C 13.5349 15.2503 13.2963 14.857 13.2963 14.4288L 13.2963 9.07159C 13.2963 5.73939 10.7366 2.85719 7.50039 2.85719C 6.00027 2.85719 4.56826 3.46435 3.47732 4.57151C 2.31814 5.71439 1.70437 7.25013 1.70437 8.92873L 1.70437 14.4288C 1.70437 14.8574 1.46572 15.2503 1.09072 15.3931C 0.34609 15.8392 0.712301 16.786 1.43166 16.786Z"/>
<path id="path3_fill" fill-rule="evenodd" d="M 8.5 17C 13.1944 17 17 13.1944 17 8.5C 17 3.80558 13.1944 0 8.5 0C 3.80558 0 0 3.80558 0 8.5C 0 13.1944 3.80558 17 8.5 17Z"/>
<path id="path4_fill" d="M 5.35645 9L 0.483398 9L 0.483398 8.0332L 2.7832 5.58203C 3.09896 5.23698 3.33171 4.93587 3.48145 4.67871C 3.63444 4.42155 3.71094 4.17741 3.71094 3.94629C 3.71094 3.63053 3.63118 3.38314 3.47168 3.2041C 3.31217 3.02181 3.08431 2.93066 2.78809 2.93066C 2.46908 2.93066 2.2168 3.04134 2.03125 3.2627C 1.84896 3.48079 1.75781 3.76888 1.75781 4.12695L 0.341797 4.12695C 0.341797 3.69401 0.444336 3.2985 0.649414 2.94043C 0.857747 2.58236 1.15072 2.30241 1.52832 2.10059C 1.90592 1.89551 2.33398 1.79297 2.8125 1.79297C 3.54492 1.79297 4.11296 1.96875 4.5166 2.32031C 4.9235 2.67188 5.12695 3.16829 5.12695 3.80957C 5.12695 4.16113 5.03581 4.51921 4.85352 4.88379C 4.67122 5.24837 4.35872 5.67318 3.91602 6.1582L 2.2998 7.8623L 5.35645 7.8623L 5.35645 9Z"/>
</defs>
</svg>
