<svg width="150" height="24" viewBox="0 0 150 24" version="1.1" xmlns="http://www.w3.org/2000/svg" xmlns:xlink="http://www.w3.org/1999/xlink">
<title>Title</title>
<desc>Created using Figma</desc>
<g id="Canvas" transform="translate(-89 -41)">
<g id="Title">
<g id="username">
<use xlink:href="#path0_fill" transform="translate(88 37)" fill="#1CAF5E"/>
</g>
</g>
</g>
<defs>
<path id="path0_fill" d="M 20.4961 15.7188C 20.4102 17.7187 19.9141 19.3086 19.0078 20.4883C 18.1094 21.6602 16.8984 22.2461 15.375 22.2461C 14.7031 22.2461 14.1211 22.1016 13.6289 21.8125C 13.1445 21.5234 12.7773 21.1094 12.5273 20.5703C 11.7461 21.6641 10.7266 22.2109 9.46875 22.2109C 8.32813 22.2109 7.44531 21.7305 6.82031 20.7695C 6.19531 19.8086 5.96094 18.5391 6.11719 16.9609C 6.25781 15.6719 6.58203 14.5273 7.08984 13.5273C 7.60547 12.5195 8.25391 11.7461 9.03516 11.207C 9.81641 10.668 10.6602 10.3984 11.5664 10.3984C 12.6836 10.3984 13.6367 10.6562 14.4258 11.1719L 15.1641 11.6758L 14.5664 18.4492C 14.4883 19.0664 14.5547 19.5391 14.7656 19.8672C 14.9844 20.1953 15.3281 20.3594 15.7969 20.3594C 16.5156 20.3594 17.1172 19.9414 17.6016 19.1055C 18.0859 18.2617 18.3516 17.1602 18.3984 15.8008C 18.5313 13.0742 17.9805 10.9805 16.7461 9.51953C 15.5195 8.05078 13.6992 7.31641 11.2852 7.31641C 9.77734 7.31641 8.43359 7.69922 7.25391 8.46484C 6.07422 9.23047 5.14453 10.3203 4.46484 11.7344C 3.78516 13.1406 3.40234 14.7539 3.31641 16.5742C 3.19141 19.3398 3.74609 21.4766 4.98047 22.9844C 6.21484 24.5 8.0625 25.2578 10.5234 25.2578C 11.1719 25.2578 11.8516 25.1836 12.5625 25.0352C 13.2734 24.8945 13.8867 24.7031 14.4023 24.4609L 14.8477 26.2656C 14.3711 26.5781 13.7266 26.8281 12.9141 27.0156C 12.1094 27.2109 11.2969 27.3086 10.4766 27.3086C 8.41406 27.3086 6.65625 26.8906 5.20312 26.0547C 3.75 25.2266 2.66406 24 1.94531 22.375C 1.23438 20.7578 0.925781 18.8242 1.01953 16.5742C 1.11328 14.418 1.60547 12.4844 2.49609 10.7734C 3.38672 9.0625 4.59766 7.74219 6.12891 6.8125C 7.66797 5.875 9.40234 5.40625 11.332 5.40625C 13.293 5.40625 14.9805 5.82812 16.3945 6.67188C 17.8086 7.50781 18.8672 8.70703 19.5703 10.2695C 20.2734 11.832 20.582 13.6484 20.4961 15.7188ZM 8.71875 16.9609C 8.63281 17.9922 8.72266 18.7773 8.98828 19.3164C 9.25391 19.8477 9.68359 20.1133 10.2773 20.1133C 10.6602 20.1133 11.0234 19.9453 11.3672 19.6094C 11.7109 19.2734 11.9961 18.7891 12.2227 18.1562L 12.7148 12.6133C 12.4102 12.5117 12.0977 12.4609 11.7773 12.4609C 10.8789 12.4609 10.1797 12.8438 9.67969 13.6094C 9.1875 14.375 8.86719 15.4922 8.71875 16.9609ZM 30.1406 22C 29.9844 21.6953 29.8711 21.3164 29.8008 20.8633C 28.9805 21.7773 27.9141 22.2344 26.6016 22.2344C 25.3594 22.2344 24.3281 21.875 23.5078 21.1562C 22.6953 20.4375 22.2891 19.5312 22.2891 18.4375C 22.2891 17.0938 22.7852 16.0625 23.7773 15.3438C 24.7773 14.625 26.2188 14.2617 28.1016 14.2539L 29.6602 14.2539L 29.6602 13.5273C 29.6602 12.9414 29.5078 12.4727 29.2031 12.1211C 28.9063 11.7695 28.4336 11.5938 27.7852 11.5938C 27.2148 11.5938 26.7656 11.7305 26.4375 12.0039C 26.1172 12.2773 25.957 12.6523 25.957 13.1289L 22.5703 13.1289C 22.5703 12.3945 22.7969 11.7148 23.25 11.0898C 23.7031 10.4648 24.3437 9.97656 25.1719 9.625C 26 9.26563 26.9297 9.08594 27.9609 9.08594C 29.5234 9.08594 30.7617 9.48047 31.6758 10.2695C 32.5977 11.0508 33.0586 12.1523 33.0586 13.5742L 33.0586 19.0703C 33.0664 20.2734 33.2344 21.1836 33.5625 21.8008L 33.5625 22L 30.1406 22ZM 27.3398 19.6445C 27.8398 19.6445 28.3008 19.5352 28.7227 19.3164C 29.1445 19.0898 29.457 18.7891 29.6602 18.4141L 29.6602 16.2344L 28.3945 16.2344C 26.6992 16.2344 25.7969 16.8203 25.6875 17.9922L 25.6758 18.1914C 25.6758 18.6133 25.8242 18.9609 26.1211 19.2344C 26.418 19.5078 26.8242 19.6445 27.3398 19.6445ZM 47.0859 15.7773C 47.0859 17.8086 46.6523 19.3945 45.7852 20.5352C 44.918 21.668 43.707 22.2344 42.1523 22.2344C 40.7773 22.2344 39.6797 21.707 38.8594 20.6523L 38.707 22L 35.6602 22L 35.6602 4L 39.0469 4L 39.0469 10.457C 39.8281 9.54297 40.8555 9.08594 42.1289 9.08594C 43.6758 9.08594 44.8867 9.65625 45.7617 10.7969C 46.6445 11.9297 47.0859 13.5273 47.0859 15.5898L 47.0859 15.7773ZM 43.6992 15.5312C 43.6992 14.25 43.4961 13.3164 43.0898 12.7305C 42.6836 12.1367 42.0781 11.8398 41.2734 11.8398C 40.1953 11.8398 39.4531 12.2813 39.0469 13.1641L 39.0469 18.168C 39.4609 19.0586 40.2109 19.5039 41.2969 19.5039C 42.3906 19.5039 43.1094 18.9648 43.4531 17.8867C 43.6172 17.3711 43.6992 16.5859 43.6992 15.5312ZM 52.4883 10.7031C 53.3867 9.625 54.5156 9.08594 55.875 9.08594C 58.625 9.08594 60.0195 10.6836 60.0586 13.8789L 60.0586 22L 56.6719 22L 56.6719 13.9727C 56.6719 13.2461 56.5156 12.7109 56.2031 12.3672C 55.8906 12.0156 55.3711 11.8398 54.6445 11.8398C 53.6523 11.8398 52.9336 12.2227 52.4883 12.9883L 52.4883 22L 49.1016 22L 49.1016 4L 52.4883 4L 52.4883 10.7031ZM 66.1875 22L 62.7891 22L 62.7891 9.32031L 66.1875 9.32031L 66.1875 22ZM 62.5898 6.03906C 62.5898 5.53125 62.7578 5.11328 63.0938 4.78516C 63.4375 4.45703 63.9023 4.29297 64.4883 4.29297C 65.0664 4.29297 65.5273 4.45703 65.8711 4.78516C 66.2148 5.11328 66.3867 5.53125 66.3867 6.03906C 66.3867 6.55469 66.2109 6.97656 65.8594 7.30469C 65.5156 7.63281 65.0586 7.79688 64.4883 7.79688C 63.918 7.79688 63.457 7.63281 63.1055 7.30469C 62.7617 6.97656 62.5898 6.55469 62.5898 6.03906ZM 75.8555 18.4961C 75.8555 18.082 75.6484 17.7578 75.2344 17.5234C 74.8281 17.2813 74.1719 17.0664 73.2656 16.8789C 70.25 16.2461 68.7422 14.9648 68.7422 13.0352C 68.7422 11.9102 69.207 10.9727 70.1367 10.2227C 71.0742 9.46484 72.2969 9.08594 73.8047 9.08594C 75.4141 9.08594 76.6992 9.46484 77.6602 10.2227C 78.6289 10.9805 79.1133 11.9648 79.1133 13.1758L 75.7266 13.1758C 75.7266 12.6914 75.5703 12.293 75.2578 11.9805C 74.9453 11.6602 74.457 11.5 73.793 11.5C 73.2227 11.5 72.7812 11.6289 72.4688 11.8867C 72.1563 12.1445 72 12.4727 72 12.8711C 72 13.2461 72.1758 13.5508 72.5273 13.7852C 72.8867 14.0117 73.4883 14.2109 74.332 14.3828C 75.1758 14.5469 75.8867 14.7344 76.4648 14.9453C 78.2539 15.6016 79.1484 16.7383 79.1484 18.3555C 79.1484 19.5117 78.6523 20.4492 77.6602 21.168C 76.668 21.8789 75.3867 22.2344 73.8164 22.2344C 72.7539 22.2344 71.8086 22.0469 70.9805 21.6719C 70.1602 21.2891 69.5156 20.7695 69.0469 20.1133C 68.5781 19.4492 68.3438 18.7344 68.3438 17.9688L 71.5547 17.9688C 71.5859 18.5703 71.8086 19.0313 72.2227 19.3516C 72.6367 19.6719 73.1914 19.832 73.8867 19.832C 74.5352 19.832 75.0234 19.7109 75.3516 19.4688C 75.6875 19.2188 75.8555 18.8945 75.8555 18.4961ZM 87.1758 22.2344C 85.3164 22.2344 83.8008 21.6641 82.6289 20.5234C 81.4648 19.3828 80.8828 17.8633 80.8828 15.9648L 80.8828 15.6367C 80.8828 14.3633 81.1289 13.2266 81.6211 12.2266C 82.1133 11.2188 82.8086 10.4453 83.707 9.90625C 84.6133 9.35938 85.6445 9.08594 86.8008 9.08594C 88.5352 9.08594 89.8984 9.63281 90.8906 10.7266C 91.8906 11.8203 92.3906 13.3711 92.3906 15.3789L 92.3906 16.7617L 84.3164 16.7617C 84.4258 17.5898 84.7539 18.2539 85.3008 18.7539C 85.8555 19.2539 86.5547 19.5039 87.3984 19.5039C 88.7031 19.5039 89.7227 19.0313 90.457 18.0859L 92.1211 19.9492C 91.6133 20.668 90.9258 21.2305 90.0586 21.6367C 89.1914 22.0352 88.2305 22.2344 87.1758 22.2344ZM 86.7891 11.8281C 86.1172 11.8281 85.5703 12.0547 85.1484 12.5078C 84.7344 12.9609 84.4688 13.6094 84.3516 14.4531L 89.0625 14.4531L 89.0625 14.1836C 89.0469 13.4336 88.8437 12.8555 88.4531 12.4492C 88.0625 12.0352 87.5078 11.8281 86.7891 11.8281ZM 98.9297 16.9141L 97.7109 18.1328L 97.7109 22L 94.3242 22L 94.3242 4L 97.7109 4L 97.7109 13.9727L 98.3672 13.1289L 101.613 9.32031L 105.68 9.32031L 101.098 14.6055L 106.078 22L 102.188 22L 98.9297 16.9141ZM 107.32 20.3359C 107.32 19.7969 107.5 19.3594 107.859 19.0234C 108.227 18.6875 108.684 18.5195 109.23 18.5195C 109.785 18.5195 110.242 18.6875 110.602 19.0234C 110.969 19.3594 111.152 19.7969 111.152 20.3359C 111.152 20.8672 110.973 21.3008 110.613 21.6367C 110.254 21.9648 109.793 22.1289 109.23 22.1289C 108.676 22.1289 108.219 21.9648 107.859 21.6367C 107.5 21.3008 107.32 20.8672 107.32 20.3359ZM 113.602 15.5664C 113.602 13.5898 114.043 12.0156 114.926 10.8438C 115.816 9.67188 117.031 9.08594 118.57 9.08594C 119.805 9.08594 120.824 9.54688 121.629 10.4688L 121.629 4L 125.027 4L 125.027 22L 121.969 22L 121.805 20.6523C 120.961 21.707 119.875 22.2344 118.547 22.2344C 117.055 22.2344 115.855 21.6484 114.949 20.4766C 114.051 19.2969 113.602 17.6602 113.602 15.5664ZM 116.988 15.8125C 116.988 17 117.195 17.9102 117.609 18.543C 118.023 19.1758 118.625 19.4922 119.414 19.4922C 120.461 19.4922 121.199 19.0508 121.629 18.168L 121.629 13.1641C 121.207 12.2813 120.477 11.8398 119.438 11.8398C 117.805 11.8398 116.988 13.1641 116.988 15.8125ZM 135 22C 134.844 21.6953 134.73 21.3164 134.66 20.8633C 133.84 21.7773 132.773 22.2344 131.461 22.2344C 130.219 22.2344 129.188 21.875 128.367 21.1562C 127.555 20.4375 127.148 19.5312 127.148 18.4375C 127.148 17.0938 127.645 16.0625 128.637 15.3438C 129.637 14.625 131.078 14.2617 132.961 14.2539L 134.52 14.2539L 134.52 13.5273C 134.52 12.9414 134.367 12.4727 134.062 12.1211C 133.766 11.7695 133.293 11.5938 132.645 11.5938C 132.074 11.5938 131.625 11.7305 131.297 12.0039C 130.977 12.2773 130.816 12.6523 130.816 13.1289L 127.43 13.1289C 127.43 12.3945 127.656 11.7148 128.109 11.0898C 128.563 10.4648 129.203 9.97656 130.031 9.625C 130.859 9.26563 131.789 9.08594 132.82 9.08594C 134.383 9.08594 135.621 9.48047 136.535 10.2695C 137.457 11.0508 137.918 12.1523 137.918 13.5742L 137.918 19.0703C 137.926 20.2734 138.094 21.1836 138.422 21.8008L 138.422 22L 135 22ZM 132.199 19.6445C 132.699 19.6445 133.16 19.5352 133.582 19.3164C 134.004 19.0898 134.316 18.7891 134.52 18.4141L 134.52 16.2344L 133.254 16.2344C 131.559 16.2344 130.656 16.8203 130.547 17.9922L 130.535 18.1914C 130.535 18.6133 130.684 18.9609 130.98 19.2344C 131.277 19.5078 131.684 19.6445 132.199 19.6445ZM 147.387 18.4961C 147.387 18.082 147.18 17.7578 146.766 17.5234C 146.359 17.2813 145.703 17.0664 144.797 16.8789C 141.781 16.2461 140.273 14.9648 140.273 13.0352C 140.273 11.9102 140.738 10.9727 141.668 10.2227C 142.605 9.46484 143.828 9.08594 145.336 9.08594C 146.945 9.08594 148.23 9.46484 149.191 10.2227C 150.16 10.9805 150.645 11.9648 150.645 13.1758L 147.258 13.1758C 147.258 12.6914 147.102 12.293 146.789 11.9805C 146.477 11.6602 145.988 11.5 145.324 11.5C 144.754 11.5 144.312 11.6289 144 11.8867C 143.688 12.1445 143.531 12.4727 143.531 12.8711C 143.531 13.2461 143.707 13.5508 144.059 13.7852C 144.418 14.0117 145.02 14.2109 145.863 14.3828C 146.707 14.5469 147.418 14.7344 147.996 14.9453C 149.785 15.6016 150.68 16.7383 150.68 18.3555C 150.68 19.5117 150.184 20.4492 149.191 21.168C 148.199 21.8789 146.918 22.2344 145.348 22.2344C 144.285 22.2344 143.34 22.0469 142.512 21.6719C 141.691 21.2891 141.047 20.7695 140.578 20.1133C 140.109 19.4492 139.875 18.7344 139.875 17.9688L 143.086 17.9688C 143.117 18.5703 143.34 19.0313 143.754 19.3516C 144.168 19.6719 144.723 19.832 145.418 19.832C 146.066 19.832 146.555 19.7109 146.883 19.4688C 147.219 19.2188 147.387 18.8945 147.387 18.4961Z"/>
</defs>
</svg>
